<?xml version="1.0" encoding="utf-8" standalone="no"?>
<!DOCTYPE svg PUBLIC "-//W3C//DTD SVG 1.1//EN"
  "http://www.w3.org/Graphics/SVG/1.1/DTD/svg11.dtd">
<svg xmlns:xlink="http://www.w3.org/1999/xlink" width="360pt" height="360pt" viewBox="0 0 360 360" xmlns="http://www.w3.org/2000/svg" version="1.1">
 <metadata>
  <rdf:RDF xmlns:dc="http://purl.org/dc/elements/1.1/" xmlns:cc="http://creativecommons.org/ns#" xmlns:rdf="http://www.w3.org/1999/02/22-rdf-syntax-ns#">
   <cc:Work>
    <dc:type rdf:resource="http://purl.org/dc/dcmitype/StillImage"/>
    <dc:date>2025-08-31T01:09:32.733787</dc:date>
    <dc:format>image/svg+xml</dc:format>
    <dc:creator>
     <cc:Agent>
      <dc:title>Matplotlib v3.10.3, https://matplotlib.org/</dc:title>
     </cc:Agent>
    </dc:creator>
   </cc:Work>
  </rdf:RDF>
 </metadata>
 <defs>
  <style type="text/css">*{stroke-linejoin: round; stroke-linecap: butt}</style>
 </defs>
 <g id="figure_1">
  <g id="patch_1">
   <path d="M 0 360 
L 360 360 
L 360 0 
L 0 0 
L 0 360 
z
" style="fill: none"/>
  </g>
  <g id="axes_1">
   <g id="patch_2">
    <path d="M 69.751464 127.803444 
C 63.943104 140.146841 60.164262 153.346978 58.560849 166.894139 
C 56.957444 180.4413 57.550353 194.158842 60.316726 207.517124 
C 63.083091 220.875407 67.986834 233.700225 74.838594 245.496403 
C 81.690354 257.29258 90.400816 267.90631 100.63362 276.927739 
C 110.866425 285.949169 122.48816 293.260687 135.050075 298.579968 
C 147.611989 303.899249 160.950295 307.156938 174.549959 308.227256 
C 188.149624 309.297566 201.833313 308.166557 215.072689 304.877884 
C 228.312065 301.58921 240.934504 296.185737 252.452588 288.876139 
C 263.970671 281.566541 274.234248 272.446104 282.84698 261.867009 
C 291.459711 251.287914 298.309317 239.388103 303.131317 226.627037 
C 307.953317 213.86597 310.684836 200.410068 311.22041 186.778867 
C 311.755985 173.147666 310.088616 159.5189 306.282698 146.418844 
C 302.47678 133.318789 296.581923 120.918224 288.825756 109.695998 
C 281.06959 98.473772 271.553284 88.576223 260.64421 80.385454 
C 249.735136 72.194686 237.575562 65.817537 224.635028 61.500249 
C 211.694491 57.18296 198.141707 54.981816 184.499989 54.981816 
L 184.499994 181.800006 
z
" style="fill: #769fcd; stroke: #ffffff; stroke-width: 4; stroke-linejoin: miter"/>
   </g>
   <g id="patch_3">
    <path d="M 184.499996 54.981816 
C 160.437235 54.981816 136.864242 61.830409 116.547386 74.723882 
C 96.23053 87.617354 79.996892 106.030806 69.751464 127.803444 
L 184.499994 181.800006 
z
" style="fill: #d7e4e2; stroke: #ffffff; stroke-width: 4; stroke-linejoin: miter"/>
   </g>
   <g id="patch_4">
    <path d="M 184.499994 270.57274 
C 208.042799 270.57274 230.62452 261.219085 247.271796 244.571808 
C 263.919073 227.924532 273.272728 205.342811 273.272728 181.800006 
C 273.272728 158.257202 263.919073 135.675481 247.271796 119.028205 
C 230.62452 102.380928 208.042799 93.027273 184.499994 93.027273 
C 160.95719 93.027273 138.375469 102.380928 121.728193 119.028205 
C 105.080916 135.675481 95.727261 158.257202 95.727261 181.800006 
C 95.727261 205.342811 105.080916 227.924532 121.728193 244.571808 
C 138.375469 261.219085 160.95719 270.57274 184.499994 270.57274 
z
" clip-path="url(#p1f89011082)" style="fill: #ffffff"/>
   </g>
   <g id="matplotlib.axis_1"/>
   <g id="matplotlib.axis_2"/>
  </g>
 </g>
 <defs>
  <clipPath id="p1f89011082">
   <rect x="45" y="43.2" width="279" height="277.2"/>
  </clipPath>
 </defs>
</svg>
